<!-- icon666.com - MILLIONS OF FREE VECTOR ICONS --><svg id="Layer_1" enable-background="new 0 0 512 512" viewBox="0 0 512 512" xmlns="http://www.w3.org/2000/svg"><g id="XMLID_1_"><g id="XMLID_3538_"><path id="XMLID_2179_" d="m187.5 352.1c-99.7 35.8-149-48.2-156.2-72.7-9.4-31.9 15.2-87.2 9.1-120.1-6.7-36.4 6.2-101.7 84.9-115.6 78.7-13.8 112.1 43.3 119.3 79.6 4.7 23.4 23.4 48.1 23.4 48.1s78.1 123.8-80.5 180.7z" fill="#d84861"></path><path id="XMLID_392_" d="m256 256.3v213.7h-131l-44.8-87.1s-14.4 45.8-44 45.1c-35.2-.8-23.9-62.8-23.9-62.8l63.9-59.5 38.6-29.7 104.6-24z" fill="#ffc96f" style="fill: rgb(203, 136, 21);"></path><path id="XMLID_1205_" d="m107.3 281.7s18.1 26.4 64 30.2c0 0 45.6-23.9 48-60l-104.5 23.9z" fill="#ffb234"></path><path id="XMLID_23_" d="m102.1 285.8 45.9 84.1 71-33.1.7-84.8 36.3 4.3v213.7h-131l-19.1-37 11.6-41.5-15.6-26.8-25.7-44.1v-15z" fill="#399349"></path><path id="XMLID_2325_" d="m475.8 428c-29.5.7-44-45.2-44-45.2l-44.8 87.2h-131v-213.7l186 49.3 14.8 22.8 42.8 36.8c.1 0 11.3 62-23.8 62.8z" fill="#3279af"></path><path id="XMLID_2348_" d="m442 305.6-186-49.3v5.5c.6 17.9 7.2 75.1 66.9 99.1 0 0 69.7 5.4 119.1-55.3z" fill="#275e87"></path><path id="XMLID_1047_" d="m268.9 209.9-12.9 20.6v25.8c18.4 63.9 75.9 77.1 75.9 77.1s76.1 8.5 110.1-27.8l11.9-33.5-9-8v-25.1" fill="#3279af"></path><path id="XMLID_1056_" d="m454.8 204.4 14.8-59.2s20.1-24.7 12.8-37.1c-7.2-12.4-23.6-6.9-23.6-6.9s7.3-30.8-5.6-35.7-25 6.8-25 6.8-26.1-25.9-44.6-29.2-20.4 19-20.4 19-32.9-21.6-47.4-17.5-4.4 25.1-4.4 25.1-55.8-10.9-36.2 28.7l-7.1 73.1" fill="#3279af"></path><g fill="#f3ab7d"><path id="XMLID_1081_" d="m70.9 198.7c-3 .5-22.5 6.3-20 20.1 2.4 13.8 14.2 24.9 33.7 21.5" fill="#f3ab7d"></path><path id="XMLID_1080_" d="m229.4 170.8c3-.5 23.3-1.7 25.7 12.1s-4.8 28.3-24.3 31.7" fill="#f3ab7d"></path><path id="XMLID_1067_" d="m282 170.6c-3-.5-23.3-1.7-25.7 12.1s5.6 28.4 25 31.8" fill="#f3ab7d"></path><path id="XMLID_1066_" d="m442 198.8c3 .5 22.5 6.3 20 20.1-2.4 13.8-15 24.8-34.4 21.3" fill="#f3ab7d"></path></g><path id="XMLID_1079_" d="m230.2 170.6s6.3 52.2-7.4 76.5c-13.9 24.7-54.1 42.8-54.1 42.8s-44-3.2-65.5-21.7c-21.1-18.2-33.1-69.4-33.1-69.4s53.8-23.5 88.4-82.6c0 0 18 20.3 42.2 16 0 .1 11.4 35.5 29.5 38.4z" fill="#f6c9aa"></path><path id="XMLID_1058_" d="m442 198.8s-12.7 50.8-33.1 69.6c-13.7 12.6-52.1 24.3-52.1 24.3l-27-4.8s-32-24.1-40.6-40.7c-12.8-24.7-7.3-76.6-7.3-76.6l25.6-42.7s23.6-11 65.1-3.7 59.9 25.7 59.9 25.7z" fill="#f6c9aa"></path><path id="XMLID_1078_" d="m180.2 230.5c-.6 2.1-5.7 16.5-18.4 19-13 2.5-23.1-9.6-24.3-11.4z" fill="#cde9fe"></path><g id="XMLID_1077_"><path id="XMLID_2262_" d="m101.4 187.5-6.5-7.6c3.7-3.2 9.9-7.2 18.6-8.7 8.5-1.4 15.5.2 20 1.9l-3.5 9.4c-3.3-1.2-8.5-2.5-14.8-1.4-6.5 1.1-11.1 4.1-13.8 6.4z" fill="#275e87"></path></g><g id="XMLID_1076_"><path id="XMLID_2261_" d="m103.1 211.6-1.4-8.1-.5-.4c.1-.2.2-.3.4-.5l-.2-1 1.2-.2c2.9-3 7.9-6.1 14.6-7.4 6.5-1.2 12 .6 14.9 1.6.5.2 1.2.4 1.4.4l-1.7 9.9c-.9-.2-1.8-.4-2.8-.8-2.5-.8-6-2-10-1.2-5.5 1-8.8 3.8-9.8 5.1-.8 1-1.9 1.7-3.1 1.9z" fill="#275e87"></path></g><g id="XMLID_1075_"><path id="XMLID_2260_" d="m168.4 175.7-6.5-7.6c3.6-3.1 9.7-7.1 18.1-8.6 8.7-1.6 15.9.1 20.4 1.8l-3.5 9.4c-3.4-1.3-8.7-2.5-15.1-1.3-6.2 1.1-10.7 4-13.4 6.3z" fill="#275e87"></path></g><g id="XMLID_1074_"><path id="XMLID_2259_" d="m174.7 198.5-5-8.7c.2-.1.7-.6 1.2-.9 2.4-1.9 7-5.5 13.5-6.6 6.7-1.1 12.5.1 16.3 1.9l1.2-.2.2 1c.2.1.3.2.5.3l-.3.5 1.4 8.1-3 .5c-1.3.2-2.6 0-3.6-.8-1.4-.9-5.5-2.4-11-1.5-4 .7-6.9 2.9-8.9 4.6-1 .8-1.7 1.4-2.5 1.8z" fill="#275e87"></path></g><g id="XMLID_1073_"><path id="XMLID_2258_" d="m96.9 216.6h10v17h-10z" fill="#e17084" transform="matrix(.174 .985 -.985 .174 305.867 85.605)"></path></g><g id="XMLID_1072_"><path id="XMLID_2257_" d="m204.3 197.6h10v17h-10z" fill="#e17084" transform="matrix(.174 .985 -.985 .174 375.931 -35.75)"></path></g><path id="XMLID_1069_" d="m219.5 110.3c-.9-.9-30-29.4-86-19.6s-73.5 46.6-74 47.8c.2-1.3 8.8-56.8 70.6-67.7s88.8 38.3 89.4 39.5z" fill="#ffc96f" style="fill: rgb(203, 136, 21);"></path><path id="XMLID_1065_" d="m374.6 238c-1.3 1.8-11 13.6-23.7 11.5-13.1-2.1-18.4-16.9-18.9-19.1z" fill="#cde9fe"></path><g id="XMLID_1064_"><path id="XMLID_2256_" d="m343.7 175.6c-2.7-2.3-7.2-5.2-13.4-6.4-6.4-1.2-11.8.1-15.1 1.3l-3.5-9.4c4.5-1.7 11.8-3.4 20.4-1.8 8.5 1.5 14.5 5.5 18.1 8.6z" fill="#275e87"></path></g><g id="XMLID_1063_"><path id="XMLID_2255_" d="m337.4 198.3c-.8-.4-1.5-1-2.4-1.7-2.1-1.6-4.9-3.9-8.9-4.5-3.8-.6-7.8 0-11.6 1.8l-4.2-9.1c5.7-2.6 11.7-3.5 17.5-2.6 6.5 1.1 11 4.6 13.4 6.5.4.3 1 .8 1.2.9z" fill="#275e87"></path></g><g id="XMLID_1062_"><path id="XMLID_2254_" d="m410.8 187.5c-2.7-2.3-7.3-5.3-13.7-6.4-6.3-1.1-11.5.2-14.8 1.4l-3.5-9.4c4.4-1.7 11.5-3.3 20-1.9 8.7 1.5 14.9 5.5 18.6 8.7z" fill="#275e87"></path></g><g id="XMLID_1061_"><path id="XMLID_2253_" d="m403.4 209.5c-3-3-6.5-4.9-10.3-5.6-4-.7-7.4.4-9.9 1.2-1 .3-1.9.6-2.8.8l-1.7-9.9c.2 0 .9-.3 1.4-.4 2.9-1 8.4-2.7 14.9-1.6 5.8 1.1 11.1 4 15.6 8.4z" fill="#275e87"></path></g><g id="XMLID_1060_"><path id="XMLID_2252_" d="m294.3 201h17v10h-17z" fill="#275e87" transform="matrix(.985 .174 -.174 .985 40.382 -49.45)"></path></g><g id="XMLID_1059_"><path id="XMLID_2251_" d="m294.3 201h17v10h-17z" fill="#e17084" transform="matrix(.985 .174 -.174 .985 40.382 -49.45)"></path></g><g id="XMLID_1057_"><path id="XMLID_2250_" d="m401.6 220.1h18v10h-18z" fill="#e17084" transform="matrix(.985 .174 -.174 .985 45.325 -67.89)"></path></g><g id="XMLID_1050_"><path id="XMLID_1054_" d="m80.2 383 19.6-16.2c5.3-4.4 7.4-11.5 5.4-18.1l-5.6-17.9c-3.1-9.8-14.1-14.7-23.4-10.3v-44.9c0-6.7-5.6-11.9-12.3-11.5-6 .4-10.7 5.4-10.7 11.5v47.7l-22-43.9c-4.1-8.1-14.7-10.2-21.5-4.2-5.5 4.9-6.2 13.2-1.7 19l20.9 26.3-23.9 35.8 32.7 39.6z" fill="#f6c9aa"></path><g id="XMLID_1053_"><path id="XMLID_2320_" d="m68.2 362.6c-1.4 0-2.7-.5-3.6-1.6l-8-8.6c-1.5-1.6-1.8-4-.7-5.9l16.1-28.5 8.7 4.9-14.3 25.3 3.2 3.4 15.3-6.4 3.8 9.2-18.5 7.7c-.7.4-1.4.5-2 .5z" fill="#f3ab7d"></path></g><g id="XMLID_1052_"><path id="XMLID_2319_" d="m29.3 384.9-6.8-7.3 30.3-28.5-27.3-24.9 6.7-7.4 31.3 28.5c1 .9 1.6 2.3 1.6 3.7s-.6 2.7-1.6 3.7z" fill="#f3ab7d"></path></g><g id="XMLID_1051_"><path id="XMLID_2318_" d="m11.5 347.1h36.9v10h-36.9z" fill="#f3ab7d" transform="matrix(.708 .706 -.706 .708 257.394 81.65)"></path></g></g><g id="XMLID_1046_"><path id="XMLID_132_" d="m352.3 312.2h10v83.9h-10z" fill="#cde9fe" transform="matrix(.995 .097 -.097 .995 36.104 -33.045)"></path></g><g id="XMLID_1045_"><path id="XMLID_78_" d="m295.7 303.7h10v86.2h-10z" fill="#cde9fe" transform="matrix(.955 .297 -.297 .955 116.544 -73.642)"></path></g><g id="XMLID_1038_"><path id="XMLID_1042_" d="m431.8 383-19.6-16.2c-5.3-4.4-7.4-11.5-5.4-18.1l5.6-17.9c3.1-9.8 14.1-14.7 23.4-10.3v-44.9c0-6.7 5.6-11.9 12.3-11.5 6 .4 10.7 5.4 10.7 11.5v47.7l22-43.9c4.1-8.1 14.7-10.2 21.5-4.2 5.5 4.9 6.2 13.2 1.7 19l-20.9 26.3 23.9 35.8-32.7 39.6z" fill="#f6c9aa"></path><g id="XMLID_1041_"><path id="XMLID_2317_" d="m443.8 362.6c-.6 0-1.3-.1-1.9-.4l-18.5-7.7 3.8-9.2 15.3 6.4 3.2-3.4-14.3-25.3 8.7-4.9 16.1 28.5c1.1 1.9.8 4.3-.7 5.9l-8 8.6c-1 1-2.3 1.5-3.7 1.5z" fill="#f3ab7d"></path></g><g id="XMLID_1040_"><path id="XMLID_2316_" d="m482.7 384.9-34.3-32.2c-1-1-1.6-2.3-1.6-3.7s.6-2.7 1.6-3.7l31.3-28.5 6.7 7.4-27.3 24.9 30.3 28.5z" fill="#f3ab7d"></path></g><g id="XMLID_1039_"><path id="XMLID_2315_" d="m477.1 333.7h10v36.9h-10z" fill="#f3ab7d" transform="matrix(.706 .708 -.708 .706 391.007 -237.854)"></path></g></g></g></g></svg>