<?xml version="1.0"?>
<svg width="175" height="119" xmlns="http://www.w3.org/2000/svg" xmlns:svg="http://www.w3.org/2000/svg" preserveAspectRatio="xMidYMid meet" version="1.0">
 <g class="layer">
  <title>Layer 1</title>
  <g fill="#000000" id="svg_1" transform="matrix(0.1 0 0 -0.1 0 0)">
   <path d="m1199.25,-166c-15,-4 -40,-16 -57,-28c-16,-12 -38,-21 -49,-21c-11,0 -25,-6 -31,-14c-11,-13 -19,-10 -57,20c-48,36 -84,43 -103,20c-16,-18 -3,-183 16,-201c9,-10 11,-26 7,-52c-4,-27 1,-55 15,-93c14,-35 19,-66 15,-86c-3,-19 -1,-35 5,-38c7,-5 11,5 11,28c0,41 5,43 52,19c18,-10 34,-18 36,-19c1,-1 0,-8 -4,-17c-18,-48 -190,-121 -261,-110c-54,8 -193,76 -227,112l-29,30l25,29c13,16 30,43 37,61c14,32 25,39 36,21c3,-5 13,-10 22,-10c13,0 15,8 10,43c-2,23 -8,50 -12,60c-5,13 -2,17 13,17c38,0 32,16 -26,72c-67,66 -89,78 -136,78c-19,0 -36,5 -38,11c-2,6 -14,8 -31,4c-18,-5 -26,-12 -23,-21c3,-7 -8,-27 -24,-44c-58,-63 -60,-135 -6,-250c9,-19 21,-42 28,-52c10,-13 6,-21 -21,-45c-52,-44 -104,-73 -131,-73c-14,0 -32,-5 -40,-10c-12,-8 -9,-10 12,-10c33,0 102,30 147,64c19,14 36,24 38,22c2,-2 -10,-41 -28,-86c-23,-60 -28,-85 -20,-93c6,-6 11,-25 11,-42c0,-21 8,-39 25,-53c29,-26 31,-38 8,-51c-21,-11 -11,-26 12,-18c9,4 15,19 15,38c0,22 5,32 20,36c11,3 20,12 20,21c0,12 5,11 23,-6c13,-12 31,-22 40,-22c11,0 17,-8 17,-22c0,-35 15,-50 41,-46l24,4l-27,12c-32,13 -38,48 -12,66c12,9 13,17 4,40c-6,16 -8,37 -5,47c3,10 -1,42 -9,70c-9,29 -16,62 -16,72c0,18 2,19 18,5c18,-16 82,-50 165,-88c47,-22 48,-22 115,-4c78,20 135,47 177,82c26,21 30,22 33,8c5,-23 -16,-85 -44,-128c-32,-50 -31,-56 14,-63c20,-4 43,-8 50,-10c15,-5 16,-77 0,-93c-15,-15 -4,-26 18,-18c14,5 15,15 10,55c-6,45 -5,49 16,55c59,15 72,9 91,-44c15,-42 22,-50 42,-50c14,0 25,5 25,10c0,6 -10,10 -23,10c-18,0 -25,8 -34,41c-12,45 -9,48 65,64c18,4 36,13 38,20c3,7 -18,35 -46,61c-52,49 -95,102 -88,109c2,2 30,-9 63,-25c75,-36 145,-47 145,-24c0,13 -7,15 -37,9c-30,-5 -50,0 -100,25c-85,43 -88,48 -46,93c19,21 36,37 38,35c1,-2 12,-19 24,-38c17,-29 21,-31 21,-14c0,12 -7,28 -16,35c-11,9 -14,23 -11,46c4,19 -1,52 -10,76c-16,42 -15,44 12,85c24,36 26,47 20,89c-13,91 -43,119 -107,102zm23,-28c-13,-23 -68,-71 -82,-71c-23,0 -2,46 30,67c43,29 66,31 52,4zm58,-35c16,-64 14,-90 -10,-120l-21,-27l-22,20c-11,11 -41,29 -65,40l-44,19l34,15c34,14 89,69 89,88c0,5 6,9 14,9c8,0 18,-19 25,-44zm-293,13c35,-21 60,-56 49,-67c-13,-14 -115,56 -115,80c0,15 32,8 66,-13zm119,-43c0,-20 -30,-45 -41,-34c-3,4 -3,19 0,33c8,31 41,31 41,1zm-170,4c4,-6 24,-19 45,-30l39,-20l-42,-39c-23,-22 -45,-37 -48,-33c-10,11 -18,132 -9,132c5,0 12,-5 15,-10zm251,-101c47,-29 42,-40 -10,-24c-58,18 -86,33 -86,47c0,15 56,2 96,-23zm-146,-32c0,-20 -13,-42 -45,-75l-45,-47l0,45c0,47 17,80 55,112c24,19 35,8 35,-35zm54,18c11,-8 46,-22 79,-32c71,-20 91,-44 81,-99c-4,-23 -21,-51 -45,-75c-37,-37 -42,-39 -102,-39c-55,0 -70,4 -105,30c-23,17 -42,35 -42,42c0,6 17,27 39,47c46,44 61,70 61,110c0,34 6,37 34,16zm-598,-36c10,-12 35,-29 55,-40c47,-23 51,-37 29,-86c-22,-50 -54,-73 -101,-73c-29,0 -43,7 -63,31c-14,17 -26,36 -26,42c0,7 -7,24 -14,40c-14,25 -13,27 3,27c10,0 33,18 51,40c18,22 37,40 40,40c4,0 15,-9 26,-21zm50,-294c35,-122 40,-115 -71,-115c-52,0 -95,4 -95,9c0,4 9,30 20,57c10,27 24,67 29,90c10,39 12,40 52,39l42,-1l23,-79zm639,38c11,-21 47,-66 79,-100c32,-35 57,-66 54,-68c-2,-2 -37,-11 -77,-20c-75,-16 -183,-19 -214,-6c-17,6 -17,8 3,34c25,32 60,126 60,161c0,24 11,30 60,35c9,0 24,-16 35,-36zm-619,-199c4,-17 2,-29 -7,-35c-21,-13 -27,-11 -45,16c-19,30 -40,32 -49,6c-5,-18 -48,-34 -60,-23c-3,3 -5,18 -5,34l0,28l80,0c77,0 80,-1 86,-26z" id="svg_2"/>
   <path d="m1175.25,-546c-16,-17 -27,-20 -67,-16c-35,3 -45,1 -37,-7c19,-19 88,-13 112,11c12,13 19,25 17,28c-3,3 -14,-4 -25,-16z" id="svg_3"/>
   <path d="m441.25,-555c8,-5 24,-10 35,-10c11,0 27,5 35,10c11,7 1,10 -35,10c-36,0 -46,-3 -35,-10z" id="svg_4"/>
   <path d="m1138.25,-732c-3,-5 5,-8 18,-8c13,0 21,3 18,8c-2,4 -10,7 -18,7c-8,0 -16,-3 -18,-7z" id="svg_5"/>
   <path d="m1138.25,-797c2,-5 10,-8 18,-8c8,0 16,3 18,8c3,4 -5,7 -18,7c-13,0 -21,-3 -18,-7z" id="svg_6"/>
  </g>
  <ellipse cx="45.25" cy="47.38" fill="#FF0000" id="svg_11" rx="0.13" ry="0" stroke="#000000"/>
  <ellipse cx="43.94" cy="48.06" fill="#FF0000" id="svg_12" rx="0.19" ry="1.19" stroke="#000000"/>
  <ellipse cx="50.69" cy="47.19" fill="#FF0000" id="svg_13" rx="0.19" ry="1.19" stroke="#000000"/>
  <path d="m50.63,55.13c1,0 2.71,-0.31 2.3,-1.05c-0.25,-0.45 -1.14,0.72 -1.75,1.17c-0.65,0.48 -1.57,0.56 -2.4,0.63c-0.9,0.07 -1.78,0.02 -2.67,0c-0.88,-0.02 -1.71,-0.31 -2.41,-0.75c-0.65,-0.42 -1.31,-0.84 -1,-1.22l0.73,0.43l0.71,0.48l0.75,0.26" fill="none" id="svg_14" stroke="#000000"/>
  <line fill="none" id="svg_17" stroke="#ffffff" x1="46.38" x2="49.63" y1="54" y2="54.63"/>
  <path d="m45.38,54.75c-1,0 -0.45,-0.07 0.45,0c0.89,0.07 1.78,0.07 2.62,0.25c0.86,0.19 2.4,0.5 2.31,-0.24c-0.08,-0.57 -1.33,0.11 -1,-0.28l0.83,-0.26" fill="none" id="svg_18" stroke="#ffffff"/>
  <polyline fill="none" id="svg_19" points="49.5 55.5 50.5752 55.3998 51.3724 55" stroke="#000000" stroke-linecap="round"/>
  <ellipse cx="109.16" cy="48" fill="#FF0000" id="svg_20" rx="0.19" ry="1.19" stroke="#000000"/>
  <ellipse cx="119.31" cy="48.56" fill="#FF0000" id="svg_21" rx="0.19" ry="1.19" stroke="#000000"/>
  <path d="m41.91,84.64c0.91,-0.12 1.8,-0.19 2.67,-0.14c0.91,0.05 2.05,-0.03 2.03,0.24c-0.07,0.85 -1.76,-0.01 -2.64,-0.03c-0.89,-0.02 0.65,0.44 0.81,-0.41c0.08,-0.42 -1,-0.09 -0.21,-0.4c0.14,-0.06 -1.55,-0.99 -1.6,-0.12c-0.02,0.28 -0.58,0.15 -1.47,0.16c-0.88,0 -1.38,0.01 -1.33,0.87c0.05,0.88 0.16,1.75 0.2,2.63c0.04,0.89 0.16,1.97 0.95,2.28c0.82,0.32 1.76,-0.2 2.52,-0.63c0.75,-0.41 0.47,-0.42 0.78,-0.2c0.71,0.49 1.32,-1.07 1.74,-1.83c0.43,-0.77 0.82,-1.7 0.6,-2.56c-0.2,-0.77 -2.2,-1.42 -2.17,-0.53c0.03,0.76 1.05,0.76 0.36,1.35c-0.66,0.57 -0.36,-0.24 0.42,0.19c0.47,0.26 -0.69,1.38 -0.46,1.5c0.8,0.4 0.7,-2.22 1.17,-1.99c0.8,0.4 -1.87,1.8 -1.19,2.37c0.46,0.38 1.02,-1.04 0.69,-0.68c-0.63,0.68 -1.19,1.88 -2.03,1.74c-0.28,-0.04 0.16,-1.07 0.57,-1.85c0.43,-0.8 0.27,-0.23 -0.23,0.4c-0.6,0.77 -1.31,1.71 -1.51,1.46c-0.54,-0.67 0.83,-1.71 0.9,-1.55c0.35,0.8 -1.09,1.04 -0.46,1.23c0.67,0.2 -0.01,1.34 -0.88,1.13c-0.84,-0.2 -1.41,-1.09 -1.33,-1.95c0.08,-0.91 0.36,-1.77 0.33,-1.58c-0.16,0.87 -0.19,1.63 -0.27,0.78c-0.09,-0.9 -0.07,-2.04 0.1,-1.95c0.64,0.34 0.57,0.2 0.67,1.03c0.11,0.97 -0.83,2.58 0.03,2.68c0.48,0.06 0.26,-1.34 0.39,-2.23c0.08,-0.55 0.77,1.15 -0.12,1.21c-0.36,0.02 -0.51,-1.67 0.27,-2.08c0.6,-0.32 1.34,1.01 0.92,1.78c-0.42,0.78 -0.78,-0.09 -0.32,-0.81c0.5,-0.78 1.37,-0.62 0.69,-0.12c-0.69,0.51 -0.17,-1.14 0.62,-0.74c0.65,0.33 0.47,0.63 1.19,0.07c0.69,-0.54 1.5,-0.98 2.36,-1.02c0.86,-0.04 1.81,-0.07 2.65,0.02c0.71,0.08 -0.16,0.33 -1.06,0.5c-0.84,0.16 -2.03,-0.05 -2.47,0.58c-0.13,0.19 0.85,0.94 0.28,0.44c-0.64,-0.56 1.36,-0.79 2.29,-0.77c0.87,0.02 0.7,0.41 -0.19,0.33c-0.5,-0.05 0.49,-0.39 1.16,0.09c0.72,0.52 -0.58,0.65 -0.33,0.21c0.42,-0.75 1.47,0.93 2.17,1.44c0.72,0.52 1.11,1.02 0.27,0.84c-0.9,-0.19 -1.78,-0.84 -1.81,-1.7c-0.03,-0.81 1.21,-0.9 2.1,-0.86c0.82,0.04 1.8,0.21 1.14,0.28c-0.82,0.08 -1.73,-0.02 -2.58,-0.1c-0.91,-0.08 -1.24,-0.27 -0.4,-0.5c0.8,-0.21 1.75,-0.42 1.39,-0.43c-0.91,-0.04 -2.57,0.71 -2.67,-0.17c-0.1,-0.83 1.65,-0.33 2.53,-0.37c0.58,-0.03 -0.34,-0.11 -1.21,-0.2c-0.9,-0.1 -1.31,-0.19 -1.53,-0.18c-0.95,0.05 -1.82,-0.12 -2.69,-0.08c-0.9,0.04 -1.97,0.05 -1.96,0.25c0.07,0.87 1.83,-0.01 2.58,0c0.95,0.02 1.83,0.08 2.7,0.12c0.92,0.04 1.78,0.09 2.7,0.1c0.88,0.01 -0.06,0.32 -0.87,-0.04c-0.28,-0.12 0.81,-0.69 1.57,-0.24c0.06,0.04 -1.52,-0.83 -1.71,-0.03c-0.02,0.1 0.95,-0.01 1.86,0.12c0.86,0.12 -0.88,-0.49 -0.88,0.4c0,0.39 1.72,0.03 1.53,0.47c-0.35,0.82 -0.65,-0.27 0.19,-0.53c0.6,-0.19 1.39,0.24 1.74,0.99c0.37,0.78 0.39,1.69 0.42,2.57c0.03,0.87 -0.56,1.57 -1.38,1.85c-0.82,0.27 -1.71,0.11 -2.3,-0.52c-0.59,-0.64 -1.29,-1.3 -1.24,-2.18c0.05,-0.88 0.92,-1.21 1.71,-0.69c0.69,0.46 0.47,1.65 0.21,1.45c-0.7,-0.56 0.08,-0.87 -0.76,-0.58c-0.35,0.12 -0.1,-1.2 0.49,-0.74c0.75,0.59 -0.36,1.21 -0.04,2.04c0.25,0.65 0.34,-0.47 0.58,0.38c0.23,0.8 0.13,-0.25 0.23,0.16c0.21,0.86 0.07,0.49 -0.64,-0.03c-0.36,-0.26 0.54,0 1.42,0c0.74,0 1.35,-1.22 0.86,-1.92c-0.46,-0.66 -1.76,-0.29 -1.5,0.51c0.28,0.84 1.58,0 1.03,-0.67c-0.53,-0.66 -0.72,0.7 -0.33,-0.08c0.38,-0.76 -0.86,-1.56 -0.61,-0.78c0.26,0.78 1.01,-0.27 0.76,-1.13c-0.02,-0.08 1.26,0.52 0.95,1.35c-0.25,0.69 -0.93,-0.51 -1.34,-1.3l0.24,-0.42" fill="none" id="svg_27" stroke="#4ac8db" transform="matrix(1 0 0 1 0 0)"/>
  <path d="m42.43,84.04c-0.61,0.44 1.13,-0.36 1.17,0.53c0.04,0.81 -1.32,0.15 -0.59,-0.39c0.35,-0.25 0.52,-0.71 1.29,-0.32c0.24,0.12 -0.85,0.58 -0.91,1.42c-0.06,0.89 0.11,0.83 0.62,0.95c0.88,0.21 0.31,1.35 -0.53,1.54c-0.86,0.19 -1.52,1.13 -1.89,0.69c-0.55,-0.66 -0.38,-1.68 -0.53,-2.54c-0.15,-0.85 -1.41,-1.88 -0.8,-2.35c0.62,-0.48 1.18,1.05 1.64,1.83c0.43,0.73 1,1.45 1.63,2.09c0.61,0.63 -0.12,1.31 0.24,1.95c0.22,0.39 0.72,-0.94 0.86,-1.85c0.13,-0.85 0.12,-1.92 0.82,-2.4c0.72,-0.49 1.73,-0.25 2.61,-0.4c0.86,-0.14 1.71,-0.6 2.58,-0.71c0.87,-0.11 1.78,-0.09 2.63,-0.24c0.9,-0.16 1.6,0.29 1.64,1.16c0.03,0.87 -0.21,1.75 -0.47,2.6c-0.26,0.84 -0.67,1.1 -0.06,0.61c0.71,-0.57 0.49,0.39 -0.03,0.89l-0.13,0.86l-0.65,0.08" fill="none" id="svg_28" stroke="#4ac8db"/>
  <path d="m92.85,21.56c-0.26,-0.91 -0.81,-1.42 -0.46,-1.76c0.59,-0.58 1.65,0.05 2.4,0.51c0.75,0.46 1.84,1.61 2.14,1.05c0.41,-0.76 -1.4,-1.03 -1.9,-0.98c-0.7,0.06 -1.18,0.62 -1.52,0.54c-0.23,-0.05 -0.14,0.74 -0.23,-0.13c-0.04,-0.37 0.18,0.06 0.13,0.93c-0.04,0.85 0.25,0.62 0.96,1.12c0.73,0.51 1.23,1.22 1.92,1.74c0.68,0.52 1.45,0.96 2.18,1.4c0.75,0.45 1.48,0.9 2.3,1.24c0.8,0.33 1.62,1.25 2.42,0.9c0.67,-0.3 0.16,-1.51 -0.36,-2.22c-0.51,-0.69 -0.97,-1.43 -1.54,-2.07c-0.58,-0.66 -1.41,-0.97 -2.18,-1.43c-0.75,-0.44 -1.4,-1.06 -2.17,-1.4c-0.8,-0.35 -2.03,-0.47 -2.38,0.33c-0.32,0.74 1.19,0.74 0.48,0.27c-0.39,-0.26 -0.28,0.9 -0.68,0.49c-0.19,-0.19 0.7,-0.37 1.53,-0.16c0.84,0.21 2.56,1.28 1.84,1.84c-0.65,0.5 -1.27,-1.16 -1.95,-1.76c-0.62,-0.54 0.18,-0.25 1.05,0.03c0.83,0.27 1.36,0.74 0.62,0.24c-0.73,-0.49 -0.44,0.28 0.18,0.94c0.63,0.66 1.77,1.32 1.46,1.52c-0.75,0.49 -2.09,-1.44 -1.57,-2.17c0.45,-0.62 1.58,0.61 2.05,1.33c0.49,0.74 -0.08,0.45 -0.72,-0.09c-0.7,-0.59 -0.19,-0.72 0.57,-0.26c0.73,0.44 2.08,1.54 1.4,2.09c-0.45,0.36 -1.77,-1.11 -1.26,-1.85c0.39,-0.58 1.38,0.54 1.8,1.33c0.42,0.78 0.67,1.95 1.28,1.62c0.29,-0.16 0.28,0.75 -0.54,0.47c-0.82,-0.28 0.55,-1.27 0.1,-0.48c-0.17,0.3 0.29,-1.38 0.54,-0.55c0.19,0.63 -1.25,0.53 -2.01,0.14c-0.79,-0.4 -1.47,-1.03 -1.11,-0.86c0.8,0.37 0.84,0.49 0.08,0.01c-0.74,-0.47 -1.64,-2.14 -2.22,-1.48c-0.32,0.37 2.19,0.81 1.68,1.57c-0.36,0.53 -1.31,-0.78 -2,-1.34c-0.71,-0.58 -1.25,-1.27 -1.14,-1.12c0.54,0.71 0.6,0.74 -0.1,0.15l-0.3,-0.76" fill="none" id="svg_29" stroke="#f28282"/>
  <path d="m96.07,23.22c-0.6,-0.26 -1.32,-0.79 -0.59,-0.42c0.33,0.17 -0.25,-0.48 -0.99,-1c-0.73,-0.51 -0.82,-0.7 -1.41,-0.06c-0.15,0.16 -0.43,-0.43 0.18,-1.09c0.43,-0.46 0.75,1.03 0.27,0.33c-0.51,-0.73 0.5,-0.49 1.09,0.21c0.56,0.66 0.63,0.87 -0.11,0.45l-0.86,-0.33l0.59,0.5l0.84,0.41" fill="none" id="svg_30" stroke="#f28282" transform="matrix(1 0 0 1 0 0)"/>
  <path d="m92.32,20.22c0.26,-0.17 -0.14,-0.32 0.52,-0.34c1.01,-0.04 1.84,0.32 2.02,0.4c0.87,0.36 1.14,1.54 1.77,2.3c0.61,0.73 1.21,1.52 2.04,2.09c0.85,0.59 1.7,1.03 2.56,1.52l0.8,0.56l0.76,0.62l0.64,0.75" fill="none" id="svg_31" stroke="#f28282"/>
  <path d="m91.93,24.93c0.86,0.16 1.21,1.02 1.87,1.57c0.66,0.56 1.6,0.69 2.4,1.07c0.79,0.38 1.52,0.88 2.26,1.33c0.75,0.45 1.53,0.86 2.37,1.12c0.84,0.26 0.43,0.67 -0.28,1.16c-0.72,0.5 -2.2,1.12 -1.73,1.65c0.57,0.65 1.43,-0.97 1,-0.73c-0.8,0.45 -1.35,1.14 -2.01,1.72c-0.65,0.57 -1.3,1.13 -1.97,1.69c-0.66,0.54 -1.31,1.18 -2.02,1.65c-0.64,0.42 -0.78,-0.55 -1.07,-1.31c-0.31,-0.81 -0.49,-1.66 -0.59,-2.54c-0.1,-0.87 -0.12,-1.76 -0.12,-2.65c0,-0.89 -0.03,-1.77 -0.09,-2.65c-0.06,-0.87 -0.69,-2.28 0.11,-2.64c0.5,-0.23 0.44,1.2 0.49,2.08c0.05,0.89 0.01,1.77 0.03,2.64c0.02,0.91 0.07,1.8 0.1,2.68c0.02,0.89 0.17,1.79 0.55,2.57c0.39,0.79 0.6,0.95 1.14,0.22c0.53,-0.7 1.04,-1.55 1.86,-1.89c0.13,-0.05 -0.17,1.82 -0.98,1.39c-0.34,-0.18 0.62,-1.08 1.22,-1.71c0.62,-0.65 1.45,-1.11 1.22,-0.8c-0.51,0.72 -0.94,1.03 -0.29,0.51c0.69,-0.55 1.27,-1.28 1.83,-1.94c0.48,-0.56 -0.05,0.08 -0.84,0.58c-0.77,0.49 -0.17,-0.05 0.63,-0.47c0.78,-0.4 1.53,-0.97 0.68,-1.09c-0.87,-0.13 -1.88,-0.02 -2.49,-0.54c-0.68,-0.57 -0.33,-0.73 0.43,-0.22c0.73,0.49 1.42,0.56 0.73,0.04c-0.69,-0.53 -1.69,-0.61 -2.45,-1.03c-0.77,-0.43 -1.46,-1.01 -2.17,-1.53c-0.72,-0.52 -1.09,0.09 -0.91,0.94c0.19,0.95 0.81,1.62 1.01,2.49c0.21,0.9 -0.03,1.76 -0.33,2.61c-0.29,0.84 -1.02,2.5 -0.17,2.56c0.75,0.05 0.31,-1.55 0.27,-2.41c-0.04,-0.82 -0.15,-1.75 -0.2,-2.68c-0.05,-0.89 -0.15,-0.26 -0.16,0.63c0,0.85 -0.68,2.03 -0.02,2.65c0.24,0.22 0.67,-0.89 0.74,-1.79c0.06,-0.72 -0.09,0.17 -0.1,1.03c-0.01,0.89 -0.2,1.78 0.11,0.99c0.31,-0.8 0.65,-2.28 1.27,-2.05c0.75,0.28 -0.05,1.89 -0.71,2.51c-0.28,0.26 -0.05,-0.67 0.3,-1.43c0.18,-0.4 0.04,0.5 -0.31,1.3c-0.36,0.82 -0.23,0.37 0.35,-0.3c0.59,-0.68 1.1,-1.83 2,-1.76c0.23,0.02 -1.17,0.74 -0.91,1.58c0.14,0.46 0.98,0.02 1.07,-0.84c0.1,-0.89 -0.99,-0.34 -1.16,-0.75c-0.31,-0.78 1.52,-0.88 2.25,-1.35c0.71,-0.46 -0.82,-0.87 -1.01,0.03c-0.02,0.09 1.04,-0.17 0.69,-0.31c-0.82,-0.34 -2.94,0.05 -2.44,0.81c0.4,0.6 2.17,-0.5 1.99,-1.34c-0.18,-0.83 -1.59,-0.2 -2.11,0.49c-0.53,0.71 -0.83,1.78 -1.13,1.72c-0.84,-0.16 0.18,-1.81 0.72,-2.54c0.52,-0.7 1.27,-0.68 0.39,-0.64c-0.78,0.03 -1.7,0.43 -1.19,-0.22c0.54,-0.69 0.37,0.54 -0.17,0.06c-0.65,-0.59 -0.06,-0.54 -0.33,-0.75c-0.71,-0.54 0.24,-0.52 1,-0.11l0.64,0.6l0.73,0.41l0.71,0.44" fill="none" id="svg_33" stroke="#f28282"/>
  <path d="m94.43,26.77c-0.48,-0.75 -1.15,-2.29 -1.78,-1.77c-0.58,0.48 0.69,1.45 0.98,2.27c0.3,0.86 0.68,1.65 1.28,2.31c0.63,0.69 1.41,1.14 1.96,1.73c0.61,0.64 0.37,0.5 0.63,-0.12c0.34,-0.8 1.6,-0.68 2.08,-0.24c0.62,0.57 1.95,0.64 2,-0.23c0.03,-0.52 -1.23,-0.5 -2.08,-0.53c-0.89,-0.03 -1.81,0.02 -2.67,-0.01c-0.94,-0.04 -1.82,-0.05 -2.69,-0.24c-0.76,-0.17 -0.32,-0.31 -0.04,0.52c0.29,0.84 0.39,1.75 0.41,2.64c0.02,0.88 -0.35,1.67 -0.73,2.52l-0.48,0.72l-0.13,0.87" fill="none" id="svg_34" stroke="#f28282"/>
  <path d="m107.95,26.52c-0.47,0.28 -0.51,-0.8 0.23,-1.3c0.63,-0.42 1.41,1 0.71,1.39c-0.75,0.41 -1.97,0.16 -2.17,-0.48c-0.25,-0.82 0.63,-1.72 1.41,-2.13c0.74,-0.39 1.88,0.02 2.2,0.81c0.32,0.79 -0.14,1.73 -0.55,2.51c-0.4,0.76 -1.03,1.44 -1.84,1.75c-0.83,0.32 -1.69,0.01 -1.71,-0.87c-0.02,-0.89 0.47,-1.87 0.66,-1.67c0.62,0.65 0.1,1.87 0.33,1.46c0.42,-0.73 0.66,-1.11 0.54,-0.26c-0.04,0.32 0.27,-0.61 0.34,-0.39c0.28,0.82 -0.69,1.21 -0.14,0.49c0.51,-0.67 1.32,-1.32 1.19,-0.81c-0.22,0.85 -1.12,1.37 -0.94,1.23c0.69,-0.53 1.22,-1.38 1.45,-2.25c0.23,-0.86 -0.33,-1.68 -1.05,-1.27c-0.75,0.42 -1.09,2.17 -0.31,2c0.85,-0.18 0.31,-1.14 0.11,-0.25l-0.27,0.79l-0.38,0.83l-0.57,0.66" fill="none" id="svg_35" stroke="#f28282"/>
  <path d="m114.17,25.99c-0.76,-0.23 -0.97,-1.11 -0.53,-1.86c0.44,-0.75 0.93,-1.49 1.46,-2.18c0.54,-0.69 1.12,-1.38 1.84,-1.88c0.72,-0.5 1.57,-0.76 2.37,-1.16c0.77,-0.39 1.42,-1.13 2.29,-1.21c0.83,-0.08 0.86,0.85 0.36,1.58c-0.49,0.71 -0.85,1.5 -1.45,2.14c-0.61,0.64 -1.42,1.03 -2.16,1.49c-0.73,0.46 -1.02,0.68 -0.19,0.3c0.38,-0.17 -0.26,0.52 -0.96,1.02c-0.71,0.5 -1.46,0.94 -2.22,1.34c-0.74,0.39 -1.69,0.67 -1.58,-0.19c0.11,-0.87 1.01,-2.28 1.59,-1.78c0.67,0.58 -0.73,1.58 -0.68,1.49c0.46,-0.78 1.07,-1.4 1.63,-2.15c0.09,-0.11 -0.4,0.68 -1.01,1.32c-0.61,0.63 -1.19,1.33 -0.98,1.2c0.75,-0.47 1.31,-1.21 1.99,-1.77c0.69,-0.56 1.5,-1.83 2.27,-1.41c0.21,0.11 -0.55,0.89 -1.24,1.46c-0.71,0.59 -0.9,0.7 -0.29,0.05c0.61,-0.66 2.1,-1.34 1.62,-1.84c-0.59,-0.61 -1.37,1.01 -2.27,1.37c-0.76,0.3 0.82,-0.67 0.15,-1.26c-0.26,-0.23 -1,0.8 -0.66,0.33c0.53,-0.73 1.12,-1.71 1.98,-1.82c0.19,-0.03 -0.48,0.64 -1.17,1.27c-0.5,0.46 0.1,-0.12 0.75,-0.74c0.67,-0.63 1.49,-1.27 1.47,-1.03c-0.05,0.89 -1.13,1.39 -1.81,1.92c-0.2,0.16 0.4,-0.48 1.07,-1.05c0.68,-0.58 1.5,-1.05 1.13,-0.39c-0.41,0.72 -1.02,2.53 -1.63,1.98c-0.65,-0.59 1.08,-1.44 1.68,-2.04c0.63,-0.63 0.73,-0.08 0.26,0.67c-0.49,0.77 -1.2,1.36 -0.86,0.95c0.6,-0.71 1.23,-1.25 1.81,-1.97c0.56,-0.69 0.95,-1.48 0.26,-0.94c-0.61,0.48 0.09,-0.02 0.8,-0.58c0.6,-0.47 0.93,0.07 0.42,0.78c-0.51,0.71 -1.16,1.37 -1.84,1.93c-0.68,0.55 -1.55,0.76 -2.42,1.01c-0.85,0.24 -1.67,0.54 -1.63,1.35l0.16,0.82l-0.52,0.68l-0.63,0.6" fill="none" id="svg_36" stroke="#f28282"/>
  <path d="m115.27,22.71c-0.65,0.55 -0.83,1.41 -0.75,2.25c0.09,0.89 -0.56,1.98 -0.95,1.31c-0.43,-0.74 0.71,-1.56 1.3,-2.19c0.61,-0.66 1.29,-1.26 1.93,-1.91c0.63,-0.64 1.28,-1.19 1.92,-1.8c0.66,-0.62 1.31,-1.22 1.09,-1.14l-0.76,0.52l-0.64,0.58l0.53,-0.6" fill="none" id="svg_37" stroke="#f28282"/>
  <path d="m123.27,28.24c0.36,-0.29 0.63,-1.16 0.94,-1.94c0.35,-0.91 0.81,-1.7 0.74,-2.6c-0.04,-0.47 -0.18,0.44 -0.16,0.31c0.17,-0.83 0.28,-1.74 0.35,-2.59c0.07,-0.93 -0.65,-1.27 -0.77,-2c-0.14,-0.78 1.26,-1.09 1.77,-0.43c0.51,0.67 0.39,1.68 0.73,2.49c0.26,0.61 0.32,-0.3 -0.03,-1.13c-0.34,-0.8 -1.33,-1.32 -1.51,-0.6c-0.22,0.88 -0.13,-0.12 -0.26,-0.03c-0.75,0.51 0.77,1.61 1.14,2.4c0.4,0.84 0.68,0.86 0.4,0c-0.28,-0.86 -0.12,-1.85 -0.72,-2.59c-0.5,-0.62 -1.1,-0.06 -0.95,0.79c0.17,0.93 0.36,1.74 0.49,2.69c0.12,0.85 0.16,1.79 0.18,2.62c0.01,0.87 0,1.73 0,2.72c0,0.82 -0.04,0.49 -0.03,-0.41c0.01,-0.94 0.02,-1.65 0.09,-2.66c0.06,-0.83 0.05,-1.74 0.27,-2.58c0.08,-0.29 0.2,0.55 0.25,1.45c0.05,0.84 0.09,1.69 0.04,2.69c-0.04,0.83 0.18,2.15 -0.21,2.12c-0.93,-0.08 0.09,-1.81 0.15,-2.58c0.07,-0.94 0.14,-1.83 0.24,-2.79c0.09,-0.85 0.24,-1.44 0.35,-0.59c0.12,0.92 0.22,1.69 0.24,2.66c0.02,0.87 0.14,1.81 0.18,1.42c0.11,-0.88 -0.03,-1.75 -0.1,-2.7c-0.07,-0.87 -0.41,-1.78 -0.24,-2.62c0.09,-0.44 0.67,0.35 1.01,1.17c0.33,0.79 0.37,1.7 0.42,2.58c0.05,0.89 -0.03,1.78 0.01,2.66c0.05,0.88 0.07,0.37 -0.08,-0.42c-0.17,-0.92 -0.38,-1.81 -0.52,-2.68c-0.14,-0.9 -0.25,-1.29 -0.37,-0.47c-0.12,0.82 -0.19,1.73 -0.28,2.71c-0.08,0.87 -0.1,1.77 -0.1,2.64c0,0.88 0.08,0.5 0.18,-0.37c0.1,-0.87 0.04,-2.1 0.37,-2.04c0.84,0.14 -0.42,1.88 0.1,2.66c0.12,0.18 0.59,-0.73 0.83,-1.59c0.22,-0.82 0.22,-1.65 0.31,-1.54c0.55,0.7 0.13,1.76 -0.01,2.64c-0.15,0.87 -0.26,1.74 -0.55,2.57c-0.28,0.82 -0.69,1.6 -1.25,2.25c-0.58,0.66 -1.25,1.19 -1.7,1.92c-0.44,0.71 -0.89,0.16 -1.54,-0.43c-0.64,-0.58 -1.34,-1.1 -2.04,-1.66c-0.68,-0.55 -1.35,-1.11 -2.13,-1.45c-0.8,-0.35 -1.66,-0.56 -2.43,-0.99c-0.76,-0.44 -1.54,-0.83 -2.33,-1.2c-0.81,-0.38 -1.74,-0.38 -2.47,-0.87c-0.37,-0.25 0.59,-0.73 1.43,-0.99c0.83,-0.26 1.72,-0.4 2.56,-0.58c0.88,-0.19 1.5,-1.84 2.19,-1.32c0.59,0.44 -1.28,1.74 -1.98,1.24c-0.29,-0.21 0.67,-0.84 1.39,-1.31c0.74,-0.48 1.43,-1.02 2.04,-1.65c0.61,-0.62 1.12,-1.32 1.7,-1.98c0.58,-0.67 1.25,-1.25 1.84,-1.88c0.62,-0.65 1.04,-1.43 1.01,-1.16c-0.12,0.83 -0.32,1.75 -0.47,2.55c-0.18,0.98 -0.39,1.71 -0.6,2.61c-0.21,0.91 -1.31,2.4 -0.45,2.69c0.36,0.12 0.48,-1.19 0.79,-2.06c0.25,-0.73 0.56,-1.64 0.91,-2.48c0.3,-0.71 0.59,-0.98 0.51,-0.11c-0.07,0.75 -0.18,1.7 -0.29,2.42c-0.15,0.97 -0.31,1.95 -0.5,2.85c-0.17,0.77 -1.48,2.27 -0.59,2.57c0.15,0.05 0.27,-1.12 0.39,-1.81c0.15,-0.92 0.29,-1.71 0.47,-2.66c0.19,-0.98 0.41,-1.88 0.46,-1.65c0.21,0.94 -0.01,1.71 -0.06,2.73c-0.04,0.72 -0.14,1.81 -0.23,2.49c-0.13,1.01 -0.19,2.05 -0.36,2.01c-0.79,-0.19 0.09,-1.8 0.24,-2.75c0.11,-0.72 -0.16,-2.42 0.54,-2.32c0.99,0.14 0.08,1.76 0.09,2.64c0.01,0.79 0,1.72 -0.1,2.67c-0.1,0.91 -0.19,1.25 -0.02,0.43c0.19,-0.94 0.36,-1.76 0.57,-2.64c0.18,-0.73 -0.2,-2.72 0.75,-2.61c0.43,0.05 0.03,1.3 -0.05,2.32c-0.06,0.8 -0.19,1.75 -0.33,2.48c-0.18,0.91 -0.45,1.66 -0.42,0.78c0.03,-0.9 0.1,-1.77 0.32,-2.6c0.24,-0.89 0.54,-0.34 0.6,0.52c0.05,0.79 0.09,1.82 0.21,1.6c0.42,-0.77 -0.09,-2.36 0.79,-2.52c0.23,-0.04 0.21,1.14 0,1.94c-0.09,0.35 0.34,-0.73 0.06,-0.83c-0.87,-0.3 -0.56,1.7 -1.16,2.43c-0.55,0.66 -1.43,1.1 -1.84,1.86c-0.28,0.52 0.08,-0.24 0.22,-1.18c0.13,-0.88 0.07,-1.77 0.03,-1.55c-0.18,0.92 0.64,2.21 -0.11,2.66c-0.33,0.2 -0.65,-0.97 -0.73,-1.8c-0.08,-0.89 0.1,-1.85 0.18,-1.21c0.11,0.83 1.02,2.66 0.16,2.67c-0.56,0 0.03,-1.41 0.21,-2.26c0.2,-0.94 -0.03,-2.78 0.88,-2.59c0.74,0.16 -0.11,1.65 -0.24,2.43c-0.14,0.87 -0.15,1.98 -0.74,2.63c-0.47,0.51 -0.94,-0.48 -1.04,-1.36c-0.11,-0.91 -0.41,-1.72 -0.44,-2.66c-0.03,-0.87 -0.53,-2.53 0.38,-2.61c0.58,-0.05 0.4,1.4 0.45,2.29c0.06,0.94 0.89,2.58 -0.01,2.72c-0.3,0.05 -0.16,-1.2 -0.22,-2.05c-0.06,-0.9 -0.05,-1.11 -0.05,-0.33c0,0.95 0.26,1.86 -0.11,2.77c-0.23,0.58 -0.71,-0.37 -1.18,-1.09c-0.49,-0.74 -1.03,-1.19 -0.5,-0.46c0.51,0.7 0.2,0.66 -0.47,0.14c-0.65,-0.5 -1.53,-1.01 -2.23,-1.5c-0.55,-0.39 0.19,0.03 0.82,0.59c0.7,0.63 1.46,1.12 2.11,1.67c0.7,0.59 1.12,0.78 0.52,0.16c-0.59,-0.61 -1.39,-1.14 -2.15,-1.64c-0.69,-0.45 -1.49,-0.89 -2.31,-1.24c-0.85,-0.37 -2.25,-1.57 -2.58,-0.71c-0.23,0.6 1.33,0.76 2.11,1.13c0.84,0.4 1.9,1.9 2.43,1.18c0.52,-0.69 -1.23,-1.17 -2.1,-1.58c-0.75,-0.35 -1.57,-0.6 -2.5,-0.92c-0.81,-0.27 -2.64,-0.08 -2.42,-0.94c0.18,-0.67 1.6,-0.03 2.44,-0.03c0.92,0 1.82,-0.02 2.66,-0.14c0.94,-0.14 1.86,-0.11 1.12,0.15c-0.86,0.3 -1.85,0.86 -2.66,0.39c-0.34,-0.2 0.74,-0.37 1.54,-0.02c0.84,0.37 0.84,1.23 -0.02,1.22c-0.94,-0.01 -2.25,-0.06 -2.31,-0.76c-0.07,-0.85 1.31,-1.18 2.17,-1.1c0.93,0.08 1.97,0.17 2.55,0.83c0.55,0.61 -0.5,1.23 -1.35,1.24c-0.86,0 -1.88,-0.09 -2.67,-0.49c-0.64,-0.32 0.18,-0.81 1.14,-0.88c0.83,-0.06 2.38,-0.2 2.37,0.54c-0.01,0.83 -1.51,0.48 -2.44,0.3c-0.89,-0.17 -0.43,-0.41 0.43,-0.43c0.93,-0.02 1.82,-0.04 2.7,-0.02c0.81,0.02 1.9,0.32 1.43,0.55c-0.79,0.38 -1.79,0.19 -2.67,0.19c-0.73,0 0.16,-0.13 1.08,-0.15c0.78,-0.02 2.34,-0.47 2.32,0.22c-0.02,0.86 -2.39,-0.23 -2.36,0.43c0.04,0.88 1.72,0.2 0.87,0.28c-0.83,0.07 -2.2,-0.1 -2.09,-0.45c0.28,-0.89 1.76,0.02 2.55,0.21c0.99,0.23 1.61,1.01 0.81,1.16c-0.83,0.15 -2.19,-0.58 -1.82,-1.04c0.56,-0.68 2.34,-0.22 2.52,0.69c0.13,0.67 -1.32,0.63 -2.21,0.3c-0.81,-0.3 -0.9,-1.26 -0.48,-1.95c0.5,-0.83 1.18,-1.35 1.77,-2.03c0.61,-0.71 0.62,-0.33 0.44,0.56c-0.14,0.7 -0.14,2.7 -1,2.4c-0.68,-0.24 0.42,-1.55 0.84,-2.31c0.42,-0.76 0.79,-1.32 0.47,-0.51c-0.3,0.76 -0.69,1.72 -1.51,2.2c-0.53,0.31 -0.37,-0.69 0.02,-1.5c0.4,-0.83 0.46,-2.41 1.44,-2.25c0.27,0.04 -0.32,1.05 -0.89,1.67c-0.63,0.7 -1.68,1.1 -1.6,0.54c0.12,-0.86 0.91,-1.54 1.48,-2.15c0.64,-0.69 0.64,-0.13 0.15,0.57c-0.52,0.73 -1.08,1.46 -1.86,1.85c-0.51,0.25 -0.25,-0.7 0.25,-1.42c0.5,-0.72 1.22,-1.35 1.11,-1.17c-0.5,0.82 -1.24,1.6 -2.07,1.65c-0.54,0.03 -0.24,-1.09 0.42,-1.77c0.52,-0.53 0.19,0.36 -0.49,0.89c-0.69,0.54 -1.74,0.71 -1.55,0.23c0.31,-0.77 1.08,-1.36 1.77,-1.88c0.66,-0.49 0.35,0.44 -0.32,0.99c-0.3,0.24 0.17,-0.51 0.8,-1.15c0.64,-0.65 1.05,-1.55 1.91,-1.91c0.28,-0.11 -0.09,0.71 -0.57,1.43c-0.52,0.78 -1.11,1.6 -1,1.56c0.8,-0.26 1.05,-1.44 1.63,-2.17c0.52,-0.67 0.62,0.03 0.37,0.87c-0.25,0.82 -0.52,2.39 -1,2.14c-0.78,-0.42 0.67,-1.61 0.99,-2.49c0.3,-0.83 0.66,-1.63 0.4,-1.17c-0.4,0.72 -0.61,2.49 -1.47,2.18c-0.49,-0.17 0.33,-1.31 0.78,-2.07c0.47,-0.79 1.05,-1.46 0.8,-1.22c-0.63,0.6 -0.62,0.06 -0.08,-0.67l0.5,-0.7l0.06,0.6l-0.25,0.86" fill="none" id="svg_38" stroke="#f28282"/>
  <path d="m98.22,42.9c-0.05,0.59 0.36,-0.27 0.69,-0.96c0.39,-0.8 0.83,-1.54 1.39,-2.26c0.62,-0.79 1.23,-2.41 1.94,-1.92c0.65,0.45 -0.51,1.59 -1,2.37c-0.48,0.78 -0.98,1.9 -1.86,1.88c-0.44,-0.01 -0.25,-1.11 0.04,-2c0.26,-0.79 0.59,-2.47 1.25,-2.1c0.76,0.44 -0.54,1.68 -0.97,2.51c-0.39,0.76 -0.84,1.31 -0.63,0.45c0.21,-0.85 0.42,-1.59 0.7,-2.46c0.14,-0.42 -0.16,0.36 -0.59,1.14c-0.42,0.76 -0.62,2.04 -1.54,2.19c-0.33,0.05 -0.16,-1.01 0.1,-1.85c0.28,-0.92 0.84,-1.68 0.77,-0.83c-0.07,0.91 -0.13,2.61 -1.03,2.43c-0.81,-0.17 -0.29,-1.75 0.08,-2.55c0.37,-0.82 0.99,-1.47 1.63,-2.09c0.64,-0.61 1.2,-1.33 1.94,-1.79c0.74,-0.47 1.74,-0.61 2.25,0.11c0.49,0.69 0.31,1.66 0.21,2.54c-0.09,0.87 -0.04,1.76 0.01,1.45c0.14,-0.87 0.47,-0.43 0.3,0.46c-0.16,0.86 -0.58,1.64 -1.04,2.38c-0.46,0.75 -1.05,1.42 -1.73,1.99c-0.67,0.57 -1.42,1.19 -1.25,1.2c0.9,0.05 0.93,-0.5 0.29,0.1c-0.61,0.58 -1.1,1.21 -1.68,1.86c-0.59,0.65 -1.19,1.29 -1.84,1.86c-0.66,0.57 -2.07,1.31 -1.59,1.84c0.12,0.13 0.6,-0.89 0.53,-1.72c-0.06,-0.79 -0.39,-1.68 -0.3,-2.56c0.09,-0.89 0.2,-1.76 0.27,-2.64c0.06,-0.88 0.25,-1.73 0.65,-2.53c0.38,-0.77 0.69,-1.63 1.16,-2.37c0.47,-0.73 1.11,-1.35 1.89,-1.83c0.77,-0.46 1.62,-0.72 2.4,-1.19c0.74,-0.44 0.58,-0.86 -0.15,-0.45c-0.81,0.45 -1.22,1.3 -1.82,1.95c-0.57,0.63 -0.96,1 -0.47,0.27c0.49,-0.73 1.05,-0.42 1.05,0.48c0,0.35 0.27,-0.53 0.74,-1.3c0.47,-0.76 0.63,0.11 0.57,0.93c-0.08,0.97 -0.34,1.8 -0.31,1.63c0.17,-0.84 0.39,-1.69 0.62,-2.55c0.24,-0.89 0.46,-0.04 0.45,0.83c-0.01,0.9 -0.02,0.48 0.03,-0.37c0.06,-0.92 0.21,-1.83 0.34,-1.53c0.38,0.86 -0.57,2.54 0.34,2.65c0.33,0.04 0.93,-1.66 0.1,-2.14c-0.08,-0.05 -0.2,1.02 -0.34,1.72c-0.17,0.89 -0.42,1.87 -0.74,2.68c-0.32,0.84 -0.36,2.39 -1.27,2.37c-0.25,-0.01 0.13,-1.05 0.47,-1.96c0.31,-0.82 0.21,-2.17 1.03,-2.47c0.38,-0.14 0.47,1.1 0.34,1.93c-0.15,0.9 -0.46,1.25 -0.21,0.43c0.26,-0.85 0.59,-1.76 0.67,-1.7c0.68,0.52 -0.48,1.69 -0.96,2.48c-0.46,0.76 -0.8,0.92 -0.55,0.02c0.23,-0.81 0.58,-1.67 0.56,-1.38c-0.05,0.85 -0.42,1.98 -1.31,2.25c-0.69,0.21 -0.95,-1.08 -0.75,-1.95c0.19,-0.81 0.81,-1.3 0.34,-0.55c-0.48,0.76 -1.06,1.38 -1.51,2.11c-0.49,0.78 -0.69,2.48 -1.5,2.21c-0.8,-0.27 -0.06,-1.71 0.02,-2.64c0.07,-0.88 0.01,-0.91 -0.24,-0.11c-0.28,0.89 0.18,2.72 -0.79,2.64c-0.57,-0.04 -0.2,-1.46 0.09,-2.34c0.09,-0.27 0.19,0.69 0,1.53c-0.2,0.89 -0.29,0.32 -0.02,-0.5c0.26,-0.81 0.45,-2.82 1.2,-2.4c0.47,0.27 -1.41,1.8 -0.66,2.12c0.79,0.34 1.05,-1.99 1.54,-1.69c0.72,0.45 -0.46,1.66 -0.88,2.48c-0.29,0.56 -0.16,-0.42 0.44,-1c0.56,-0.53 0.85,0.52 0.52,1.36c-0.34,0.86 -0.78,0.96 -0.35,0.25c0.44,-0.74 0.74,-1.85 1.58,-2.16c0.4,-0.15 0.19,0.91 -0.29,1.65c-0.51,0.8 -1.04,1.14 -0.53,0.42c0.49,-0.68 1.11,-2.06 1.61,-1.68c0.66,0.51 -0.54,1.73 -1.09,2.36c-0.43,0.5 1.06,-0.71 0.3,-1.15c-0.41,-0.24 -0.7,1.16 -1.28,1.86c-0.52,0.63 -1.07,1.44 -1.85,1.9c-0.25,0.15 0.19,-0.69 0.57,-1.47c0.38,-0.8 0.39,-1.28 0.08,-0.42c-0.29,0.8 -0.52,1.64 -0.96,2.45c-0.42,0.77 -0.27,-0.13 -0.03,-0.95c0.25,-0.86 1.13,-2.55 0.22,-2.66c-0.63,-0.08 -0.25,1.47 -0.4,2.35c-0.16,0.88 -0.4,0.48 -0.46,-0.39c-0.06,-0.87 0.2,-1.61 0.36,-0.69c0.14,0.8 -0.97,2.11 -0.27,2.57c0.74,0.48 1.45,-1.03 2.02,-1.64c0.64,-0.68 0.39,0.01 -0.07,0.8l-0.56,0.44" fill="none" id="svg_40" stroke="#d88d47"/>
  <path d="m110.53,33.35c0.87,-0.05 1.8,-0.04 2.6,0.23c0.86,0.29 0.46,0.8 -0.31,0.48c-0.87,-0.36 -2.04,-0.54 -2.04,-1.02c0,-0.26 -0.97,-0.55 -1.35,0.12c-0.4,0.71 0.73,1.4 1.58,1.68c0.82,0.27 1.52,0.81 2.36,1.04c0.85,0.23 1.5,0.77 2.29,1.03c0.82,0.28 1.86,-0.13 2.61,0.28c0.37,0.2 -1.52,1.17 -1.51,0.29c0.01,-0.41 1.2,0.36 2.01,0.65c0.83,0.3 1.8,0.67 2.63,0.35c0.49,-0.19 -0.42,-0.85 -1.1,-1.41c-0.67,-0.56 -1.22,-1.24 -1.98,-1.67c-0.77,-0.44 -1.6,-0.7 -2.47,-0.95c-0.85,-0.24 -1.61,-0.72 -2.49,-0.81c-0.86,-0.09 -2,-0.56 -2.66,0.04c-0.42,0.38 -0.32,-0.48 -0.66,-0.03c-0.51,0.67 1.92,0.8 1.91,1.68c0,0.24 0.44,0.3 1.27,0.55c0.86,0.26 1.54,0.9 2.37,1.17c0.83,0.27 1.74,0.41 2.61,0.48c0.89,0.07 2.14,0.32 2.17,-0.11c0.04,-0.89 -1.62,-0.7 -2.46,-0.96c-0.84,-0.26 -0.52,-0.35 0.27,0.04c0.8,0.39 0.73,-0.32 -0.06,-0.76c-0.76,-0.43 -1.65,-0.58 -2.49,-0.8c-0.9,-0.23 -0.56,0.43 0.23,0.84c0.8,0.42 1.72,0.74 1.71,0.66c-0.18,-0.86 -1.68,-0.57 -2.51,-0.87c-0.84,-0.3 -1.71,-0.85 -1.58,-0.9c0.82,-0.32 1.52,0.84 2.34,1.21c0.81,0.37 0.39,0.41 -0.5,0.18c-0.81,-0.21 -1.72,-0.45 -2.47,-0.93c-0.74,-0.48 -1.69,-1.49 -1.82,-1.11c-0.28,0.85 1.69,0.62 2.46,0.89l0.86,0.27l0.82,0.41l0.82,0.3" fill="none" id="svg_41" stroke="#d88d47"/>
 </g>
</svg>