<?xml version="1.0" standalone="no"?>
<!DOCTYPE svg PUBLIC "-//W3C//DTD SVG 20010904//EN"
        "http://www.w3.org/TR/2001/REC-SVG-20010904/DTD/svg10.dtd">
<svg version="1.0" xmlns="http://www.w3.org/2000/svg"
     width="512.000000pt" height="512.000000pt" viewBox="0 0 512.000000 512.000000"
     preserveAspectRatio="xMidYMid meet">

    <g transform="translate(0.000000,512.000000) scale(0.100000,-0.100000)"
       fill="#e91e63" stroke="none">
<path d="M3795 4718 c-122 -63 -598 -361 -1905 -1193 -586 -373 -1082 -688
-1102 -702 -21 -13 -38 -21 -38 -19 0 13 357 301 940 756 715 559 809 639 826
704 7 29 -29 86 -68 107 -36 19 -145 5 -228 -31 -41 -17 -82 -34 -90 -38 -9
-3 -5 7 10 29 60 81 68 153 21 200 -34 34 -58 36 -109 10 -36 -18 -390 -245
-697 -446 -152 -99 -625 -405 -680 -440 l-30 -18 25 25 c14 14 243 225 510
469 267 243 491 452 499 462 35 49 -4 127 -64 127 -36 0 -25 7 -310 -195 -379
-269 -998 -675 -1029 -675 -22 0 211 266 465 532 185 193 195 209 169 259 -13
23 -61 49 -93 49 -43 0 -159 -67 -297 -171 -74 -56 -137 -103 -140 -106 -2 -2
1 -13 8 -23 7 -11 17 -28 23 -38 20 -32 2 -67 -79 -159 -139 -159 -245 -303
-282 -386 -11 -23 -20 -63 -20 -88 0 -60 42 -104 98 -103 61 2 235 85 461 221
29 18 -20 -31 -293 -292 -201 -191 -282 -280 -292 -321 -8 -33 22 -76 62 -87
46 -13 119 20 345 156 182 110 614 384 647 409 6 6 12 8 12 5 0 -3 -125 -92
-277 -198 -693 -483 -807 -597 -699 -705 75 -75 84 -70 956 562 544 395 741
532 932 650 74 46 24 5 -407 -332 -687 -536 -950 -753 -1149 -945 -147 -141
-197 -211 -204 -280 -4 -43 -1 -51 26 -79 39 -39 64 -38 148 6 81 43 533 325
1119 699 231 148 728 464 1104 703 376 238 708 449 737 468 30 19 54 33 54 30
0 -14 -590 -490 -1020 -822 -424 -327 -540 -415 -930 -704 -511 -378 -900
-677 -937 -719 -42 -47 -43 -81 -2 -115 33 -28 62 -32 94 -13 11 7 299 222
640 478 341 256 708 528 815 605 850 611 1580 1084 1990 1289 113 57 255 115
235 97 -5 -5 -282 -188 -615 -407 -1509 -995 -2145 -1459 -2545 -1860 -281
-281 -377 -488 -279 -605 45 -53 116 -36 289 70 39 23 74 45 79 48 5 3 -17
-26 -48 -64 -98 -119 -127 -205 -91 -274 8 -16 24 -34 34 -40 42 -22 74 -10
210 77 75 48 160 102 190 121 l55 35 -59 -69 c-107 -126 -155 -219 -155 -300
0 -54 21 -109 48 -123 54 -29 50 -31 1060 607 1233 781 2294 1445 2377 1490
34 18 -155 -165 -310 -300 -483 -420 -1536 -1188 -2526 -1842 -114 -75 -212
-143 -220 -152 -23 -28 -16 -84 15 -110 92 -80 246 8 1736 1000 864 574 914
608 890 583 -28 -28 -204 -150 -670 -465 -876 -592 -1119 -767 -1340 -966
-141 -126 -230 -258 -230 -339 0 -83 63 -139 125 -113 16 7 323 199 680 426
783 497 1069 677 1320 827 105 63 198 122 208 130 26 24 22 79 -9 110 -48 48
-79 34 -564 -265 -157 -97 -523 -327 -815 -512 -291 -185 -537 -340 -545 -344
-59 -33 153 132 365 285 233 168 342 244 820 566 594 400 773 526 960 677 239
192 321 318 270 415 -8 16 -28 34 -46 41 -28 12 -39 11 -83 -4 -52 -19 -179
-90 -321 -181 -136 -87 -139 -92 60 85 133 118 323 312 388 397 114 148 144
256 87 313 -41 41 -85 24 -366 -142 -313 -186 -2455 -1530 -3104 -1947 l-25
-16 23 31 c105 150 472 449 977 799 447 310 860 576 1728 1112 651 402 668
413 715 456 25 24 32 39 32 67 0 44 -33 80 -75 80 -80 0 -660 -353 -2525
-1538 -558 -354 -1022 -650 -1030 -656 -41 -30 35 45 110 108 528 447 1777
1290 3085 2083 257 156 325 206 325 238 0 57 -53 99 -111 86 -128 -30 -485
-251 -2089 -1294 -1246 -811 -1741 -1127 -1764 -1127 -15 0 38 84 102 161 132
160 392 383 827 709 501 375 1021 732 2085 1430 566 371 618 413 589 481 -15
37 -58 74 -105 89 -51 17 -145 6 -257 -31 -93 -31 -373 -164 -547 -260 l-95
-53 142 138 c214 207 257 284 197 355 -31 38 -78 41 -139 9z"/>
</g>
</svg>
