<?xml version="1.0" ?><svg data-name="Layer 2" height="32" id="b" viewBox="0 0 32 32" width="32" xmlns="http://www.w3.org/2000/svg"><path d="M19.525,21.713c2.042-3.161,4.475-7.578,4.475-10.713,0-4.411-3.589-8-8-8s-8,3.589-8,8c0,3.135,2.433,7.552,4.475,10.714-3.368,.423-6.475,1.517-6.475,3.536,0,2.96,6.286,3.75,10,3.75s10-.79,10-3.75c0-2.35-3.972-3.221-6.475-3.537Zm-3.525-16.713c3.309,0,6,2.691,6,6,0,3.362-3.803,9.304-6,12.331-2.197-3.027-6-8.969-6-12.331,0-3.309,2.691-6,6-6Zm0,22c-5.162,0-7.818-1.276-8.005-1.716,.163-.442,2.079-1.382,5.746-1.685,.8,1.145,1.389,1.911,1.47,2.015,.189,.243,.481,.386,.79,.386s.6-.143,.79-.386c.081-.104,.67-.871,1.471-2.016,3.671,.303,5.584,1.248,5.745,1.617-.187,.509-2.843,1.785-8.005,1.785Z"/><path d="M21,11c0-2.757-2.243-5-5-5s-5,2.243-5,5,2.243,5,5,5,5-2.243,5-5Zm-8,0c0-1.654,1.346-3,3-3s3,1.346,3,3-1.346,3-3,3-3-1.346-3-3Z"/><path d="M18,10.341c0-1.448-1.077-1.763-2-.314-.923-1.448-2-1.134-2,.314,0,1.609,2,2.575,2,2.575,0,0,2-.966,2-2.575Z"/></svg>