<!-- icon666.com - MILLIONS OF FREE VECTOR ICONS --><svg version="1.1" id="Capa_1" xmlns="http://www.w3.org/2000/svg" xmlns:xlink="http://www.w3.org/1999/xlink" x="0px" y="0px" viewBox="0 0 296.298 296.298" style="enable-background:new 0 0 296.298 296.298;" xml:space="preserve"><g><path d="M259.541,118.026c0-21.374-8.473-42.031-23.393-56.289c-1.489-1.422-3.385-2.438-5.444-2.438h-32.631 c17.142-30,2.086-52.865-12.51-57.543c-18.158-5.794-31.012,3.477-37.25,17.273c-7.49-12.361-19.086-23.123-37.234-17.329 C96.476,6.377,81.417,29.298,98.556,59.298H65.928c-2.059,0-4.038,1.017-5.527,2.438C45.48,75.994,36.757,96.54,36.757,117.914 c0,38.575,27.225,70.555,62.225,74.814v87.57H83.315c-4.418,0-8,3.582-8,8s3.582,8,8,8h47c4.418,0,8-3.582,8-8s-3.582-8-8-8 h-15.333v-87.57c13-1.483,23.489-6.322,33.001-13.631c9.51,7.308,20.999,12.146,32.999,13.631v87.57h-15.667c-4.418,0-8,3.582-8,8 s3.582,8,8,8h47c4.418,0,8-3.582,8-8s-3.582-8-8-8h-15.333v-87.57C231.982,188.47,259.541,156.602,259.541,118.026z M177.468,112.298c-0.962-13-5.124-26-11.976-37h61.879c9.132,10,14.807,23,16.066,37H177.468z M145.371,75.298 c9.132,10,14.807,23,16.066,37H53.193c1.26-14,6.935-27,16.066-37H145.371z"></path></g></svg>