<?xml version="1.0" ?><svg xmlns="http://www.w3.org/2000/svg" width="128" height="128" viewBox="0 0 128 128"><g><path d="M76.222,77.562a14.478,14.478,0,0,0,3.862-4.913c21.477-7.823,14.442-37.935,13-43.3a12.251,12.251,0,0,0,4.266-5.238A.5.5,0,0,0,97,23.452a13.015,13.015,0,0,0-4.256-.3V21.519c0-3.551-4.643-6.44-10.35-6.44a16.432,16.432,0,0,0-1.982.121,12.913,12.913,0,0,0-.768-6.029.5.5,0,0,0-.627-.273A16.27,16.27,0,0,0,73,12.677c-.452-3.3-4.9-5.895-10.3-5.895s-9.865,2.605-10.3,5.909a.484.484,0,0,0-.024.294c0,.072-.017.143-.017.215,0,.01-.006.019-.006.029V16.98a15.178,15.178,0,0,0-5.4-.957c-5.415,0-9.865,2.606-10.3,5.91a.481.481,0,0,0-.024.293c0,.071-.017.141-.017.213,0,.01-.006.019-.006.029V23.56a9.35,9.35,0,0,0-4.479-.335.5.5,0,0,0-.4.364c-.018.069-1.676,6.73,5.51,11.232-10.333,21.6-1.557,32.463,7.768,37.791a14.793,14.793,0,0,0,4.364,5.35c-3.018,2.912-12.22,12.4-17.8,24.862a.5.5,0,0,0,.084.538c.1.11,9.9,10.846,24.663,9.846v7.51a.5.5,0,0,0,.5.5h.015c.112,0,11.333-.385,19.89-4.019,8.318-3.532,22.047-.219,22.185-.185a.5.5,0,0,0,.618-.523C99.488,116.218,97.232,89.324,76.222,77.562Zm3.381-5.8a109.313,109.313,0,0,1-15.952,1.319c.747-1.488,2.741-4.394,8.033-8.669,8.482-6.848,7.612-14.081,7.571-14.385a.5.5,0,0,0-.991.133c.009.069.81,7-7.208,13.474-5.829,4.708-7.832,7.853-8.52,9.469-3.292,0-6.583-.167-9.868-.466-.632-3.222-1.722-15.7,15.712-27.059.423-.286.867-.572,1.322-.849,15.545-9.561,20.657-13.443,22.334-14.985a.46.46,0,0,0,.126.033C93.664,35.429,100.244,64.394,79.6,71.767ZM38.511,33.952a9.242,9.242,0,0,1-.921-4.023V25.211c1.658,2.186,5.221,3.705,9.352,3.705s7.688-1.517,9.348-3.7v1.2a18.758,18.758,0,0,0-7.231,8.349A70.115,70.115,0,0,0,38.511,33.952Zm18.53-6.831a14.876,14.876,0,0,1,3.891-1.552,11.279,11.279,0,0,1-4.009,11.043,48.049,48.049,0,0,0-6.838-1.68A17.536,17.536,0,0,1,57.041,27.121Zm15.03-3.615a.383.383,0,0,0,.058.027c.01,0,.02,0,.03,0l.134.047a.491.491,0,0,0,.15.055c.089.035.171.075.257.112a.49.49,0,0,0,.233.1c2.2,1,3.617,2.55,3.617,4.295,0,3.006-4.195,5.451-9.35,5.451a13.6,13.6,0,0,1-5.88-1.264c.1-.269.191-.537.271-.8a9.31,9.31,0,0,0,2.231.284c3.414,0,6.949-1.632,8.045-3.55a1.986,1.986,0,0,0-.372-2.63c-1.5-1.347-4.328-.463-4.447-.425a.5.5,0,0,0,.3.953c.665-.212,2.581-.587,3.473.214A.99.99,0,0,1,71,27.77c-1.051,1.841-5.476,3.727-9.167,2.811a13.368,13.368,0,0,0-.041-5.749.5.5,0,0,0-.587-.352c-.487.105-.96.235-1.426.378A12.548,12.548,0,0,1,67.2,22.7,14.544,14.544,0,0,1,72.071,23.506ZM85.09,27.742h0c.375-.061.741-.136,1.1-.221.126-.031.243-.07.367-.1.226-.061.454-.12.672-.19.138-.045.267-.1.4-.147.192-.069.387-.136.571-.213.137-.057.264-.122.4-.183.169-.079.342-.155.5-.24.13-.068.249-.143.373-.216.151-.087.3-.173.446-.266.119-.078.227-.163.34-.245.133-.1.268-.191.392-.293.106-.088.2-.181.3-.272.115-.105.231-.209.336-.318s.173-.2.257-.3c.064-.075.136-.147.195-.225v4.346c-.537.564-2.567,2.376-9.868,7.186a12.237,12.237,0,0,0-.035-6.217.5.5,0,0,0-.686-.3,12.915,12.915,0,0,0-3.6,2.443V28.148a4.089,4.089,0,0,0-.134-.986,15.918,15.918,0,0,0,7.674.58ZM81.022,30.5a11.392,11.392,0,0,1-.487,6.222c-1.748,1.139-3.764,2.428-6.087,3.888A12.68,12.68,0,0,1,81.022,30.5Zm-20.1,2.75A14.615,14.615,0,0,0,67.2,34.6c4.129,0,7.69-1.518,9.35-3.7v1.947a15.33,15.33,0,0,0-3.177,8.438c-1.307.818-2.7,1.679-4.193,2.6-.317.194-.617.393-.92.591-2.144-3.558-5.986-5.919-10.242-7.48A11.621,11.621,0,0,0,60.921,33.249ZM96.167,24.3a11.6,11.6,0,0,1-3.405,4.055c-.007-.01-.015-.017-.022-.026V24.151A11.865,11.865,0,0,1,96.167,24.3ZM91.74,21.519a3.53,3.53,0,0,1-.669,2.022c-1.1,1.563-3.4,2.765-6.15,3.215a14.267,14.267,0,0,1-2.531.212,13.9,13.9,0,0,1-5.506-1.074,6.033,6.033,0,0,0-1-1.245,8.876,8.876,0,0,0,3.161.552,10.909,10.909,0,0,0,1.1-.057c3.326-.335,6.53-2.131,7.144-4a1.933,1.933,0,0,0-.6-2.129c-1.492-1.347-4.33-.465-4.449-.427a.5.5,0,0,0,.3.953c.668-.21,2.593-.58,3.477.216a.937.937,0,0,1,.318,1.076c-.43,1.313-3.121,3-6.293,3.319-1.813.182-5.1.013-6.967-3.07.387-2.794,4.411-5,9.312-5C87.546,16.079,91.74,18.519,91.74,21.519ZM78.882,10.013a12.412,12.412,0,0,1,.488,5.347,10.36,10.36,0,0,0-6.33,3.415V14.043A15.217,15.217,0,0,1,78.882,10.013ZM62.692,7.782c5.154,0,9.347,2.442,9.348,5.445v.007c-.005,3-4.2,5.44-9.348,5.44-4.191,0-7.747-1.615-8.93-3.833a7.946,7.946,0,0,0,5.581,2.067c.36,0,.728-.019,1.1-.056,3.325-.336,6.53-2.131,7.143-4a1.931,1.931,0,0,0-.6-2.13c-1.49-1.345-4.328-.466-4.448-.427a.5.5,0,1,0,.3.953c.667-.21,2.593-.58,3.476.216a.937.937,0,0,1,.319,1.076c-.43,1.314-3.121,3-6.293,3.319a6.96,6.96,0,0,1-6.964-3.065C53.765,9.992,57.79,7.782,62.692,7.782ZM53.34,15.97c1.658,2.185,5.221,3.7,9.352,3.7s7.688-1.516,9.348-3.7v4.7a9.325,9.325,0,0,1-.177,1.719,15.517,15.517,0,0,0-4.663-.7c-4.241,0-7.951,1.557-9.546,3.974-.125.059-.242.126-.364.188V22.469c0-2.05-1.55-3.875-3.951-5.056Zm-6.4,1.053a14.082,14.082,0,0,1,5.639,1.113.473.473,0,0,0,.13.056c2.174,1,3.578,2.541,3.579,4.275h0v.007c-.005,3-4.2,5.441-9.348,5.441-4.192,0-7.747-1.616-8.93-3.834a7.946,7.946,0,0,0,5.581,2.067,10.9,10.9,0,0,0,1.1-.056c3.325-.335,6.53-2.131,7.143-4a1.931,1.931,0,0,0-.6-2.13c-1.491-1.346-4.329-.465-4.448-.426a.5.5,0,1,0,.3.953c.668-.211,2.593-.581,3.476.216a.936.936,0,0,1,.319,1.075c-.43,1.314-3.121,3-6.293,3.32-1.81.183-5.1.013-6.964-3.065C38.015,19.234,42.04,17.023,46.942,17.023ZM32.607,24.164a8.191,8.191,0,0,1,3.983.448v5.317a10.428,10.428,0,0,0,.714,3.764C32.005,30.121,32.386,25.43,32.607,24.164Zm5.647,10.791c2.773-.014,23.285.232,29.172,10.066C50.4,56.313,50.983,68.769,51.633,72.541c-2.037-.2-4.073-.448-6.1-.767C36.516,66.643,28.008,56.1,38.254,34.955ZM46.245,72.9c1.94.29,3.886.509,5.833.695a.488.488,0,0,0,.181.037.465.465,0,0,0,.1-.011c3.472.323,6.952.495,10.433.487a.461.461,0,0,0,.081.015c.02,0,.035-.015.055-.017A110.279,110.279,0,0,0,78.843,72.9a14.158,14.158,0,0,1-3.69,4.257,118.491,118.491,0,0,1-25.218,0A14.2,14.2,0,0,1,46.245,72.9Zm30.07,43.382c-7.347,3.121-16.734,3.8-19.015,3.917v-7.527h0c.016-.453.618-16.662,3.41-26.867a.5.5,0,1,0-.965-.264c-2.584,9.444-3.31,23.931-3.427,26.662-13.114.919-22.2-7.726-23.714-9.271C38.477,89.994,48.256,80.354,50.53,78.216a110.844,110.844,0,0,0,11.681.61,128.993,128.993,0,0,0,13.023-.678c19.125,10.325,22.7,33.469,23.206,37.736C95.487,115.238,83.946,113.037,76.315,116.278Z"/><path d="M17.264,29.44c-1.534-.383-2.072.47-2.231.854-.445,1.08.293,2.621,2.258,4.71,1.513,1.611,6.318,5.776,7.241,5.776a.2.2,0,0,0,.068-.01.509.509,0,0,0,.34-.429C25.433,35.27,20.184,30.167,17.264,29.44Zm-1.306,1.235c.038-.092.137-.333.588-.333a1.994,1.994,0,0,1,.477.068c2.437.607,6.76,4.913,6.942,9.02C21.7,37.855,15.221,32.462,15.958,30.675Z"/><path d="M113.016,25.32c-.185-.593-.77-1.273-2.516-1.119-5.717.49-10.876,13.061-11.093,13.6a.5.5,0,0,0,.464.688.487.487,0,0,0,.247-.066C107.8,34.037,113.825,27.917,113.016,25.32ZM100.954,36.764c1.512-3.289,5.565-11.218,9.631-11.567.114-.009.247-.017.386-.017.458,0,.98.082,1.09.438C112.547,27.177,108.132,32.37,100.954,36.764Z"/></g></svg>