<svg xmlns="http://www.w3.org/2000/svg" version="1.1" width="100px" height="100px" style="shape-rendering:geometricPrecision; text-rendering:geometricPrecision; image-rendering:optimizeQuality; fill-rule:evenodd; clip-rule:evenodd" xmlns:xlink="http://www.w3.org/1999/xlink">
    <g><path style="opacity:1" fill="#666265" d="M 47,29 C 75.0962,28.0876 87.4296,41.421 84,69C 74.7028,83.9972 61.7028,87.9972 45,84C 29.3586,73.058 25.0252,58.7248 32,41C 36.9568,36.7212 41.9568,32.7212 47,29 Z"/></g>
    <g><path style="opacity:1" fill="#f7f2f6" d="M 81,69 C 78.2298,64.233 74.2298,60.8995 69,59C 69.524,56.0444 68.8574,53.3776 67,51C 65.4468,55.5624 63.4468,59.8957 61,64C 54.3694,66.6698 47.7028,67.6698 41,67C 43.3756,69.68 46.3756,71.013 50,71C 53.65,70.1132 57.3166,69.4466 61,69C 65.6478,71.3114 70.3144,73.3114 75,75C 58.3922,85.3326 44.7256,82.666 34,67C 31.204,37.9056 43.5371,28.239 71,38C 80.0966,46.2642 83.43,56.5974 81,69 Z"/></g>
    <g><path style="opacity:1" fill="#FFC0CB" d="M 69,59 C 74.2298,60.8995 78.2298,64.233 81,69C 79.6667,71.6667 77.6667,73.6667 75,75C 70.3144,73.3114 65.6478,71.3114 61,69C 64.1254,66.1104 66.792,62.7772 69,59 Z"/></g>
    <g><path style="opacity:1" fill="#6c666a" d="M 69,59 C 66.792,62.7772 64.1254,66.1104 61,69C 57.3166,69.4466 53.65,70.1132 50,71C 46.3756,71.013 43.3756,69.68 41,67C 47.7028,67.6698 54.3694,66.6698 61,64C 63.4468,59.8957 65.4468,55.5624 67,51C 68.8574,53.3776 69.524,56.0444 69,59 Z"/></g>
    <g><path style="opacity:1" fill="#747074" d="M 55,43 C 59.5638,46.1332 60.8972,50.1332 59,55C 55.8274,51.6546 54.494,46.6546 55,43 Z"/></g>
    <g><path style="opacity:1" fill="#5d595d" d="M 45,47 C 48.477,50.239 49.477,54.239 48,59C 45.744,55.3094 44.744,50.3094 45,47 Z"/></g>
</svg>
